<svg xmlns="http://www.w3.org/2000/svg" viewBox="0 0 600 280" fill="none" role="img" aria-labelledby="t d"><title id="t">Community banking</title><desc id="d">A welcoming local bank branch and neighbors in conversation.</desc><defs><linearGradient id="bg" x1="0" y1="0" x2="600" y2="280"><stop stop-color="#EAF0FB"/><stop offset="1" stop-color="#F8EAF3"/></linearGradient></defs><rect width="600" height="280" rx="20" fill="url(#bg)"/><circle cx="493" cy="59" r="36" fill="#fff" fill-opacity=".7"/><rect x="182" y="93" width="238" height="136" rx="12" fill="#fff"/><path d="m164 103 137-64 137 64H164Z" fill="#3052A1"/><path d="M189 104h224" stroke="#D5DDF0" stroke-width="5"/><rect x="209" y="126" width="36" height="103" rx="4" fill="#DDE5F5"/><rect x="279" y="126" width="44" height="103" rx="5" fill="#F4E0ED"/><rect x="354" y="126" width="44" height="52" rx="4" fill="#E6ECF8"/><path d="M354 193h44v36h-44z" fill="#D5A2CB" fill-opacity=".75"/><circle cx="134" cy="168" r="22" fill="#A7654F"/><path d="M103 244c3-40 12-59 31-59s29 19 32 59h-63Z" fill="#D5A2CB"/><circle cx="465" cy="174" r="20" fill="#8C5745"/><path d="M435 244c3-39 11-55 30-55 18 0 27 16 30 55h-60Z" fill="#3052A1"/><path d="M162 169h24m235 7h23" stroke="#fff" stroke-width="4" stroke-linecap="round"/><circle cx="176" cy="67" r="11" fill="#D5A2CB" fill-opacity=".22"/><circle cx="441" cy="224" r="9" fill="#3052A1" fill-opacity=".2"/></svg>
